<svg xmlns="http://www.w3.org/2000/svg" width="80" height="80"><path fill="#3295d1" d="M3.333 3.528h73.334v56.667h-8.333v-6.21c2.068-2.35 3.333-5.422 3.333-8.79 0-7.352-5.982-13.333-13.333-13.333C50.981 31.862 45 37.843 45 45.195c0 3.368 1.265 6.44 3.334 8.79v6.21h-45zM65 73.918l-6.667-4-6.666 4V56.745c.056.033.12.055.178.087.442.246.897.473 1.367.67l.063.023a13.25 13.25 0 0010.12 0l.063-.023c.47-.197.925-.422 1.367-.67.058-.032.122-.054.178-.087v17.173zm.442-21.7c-.15.152-.31.292-.468.434-.09.08-.174.165-.267.241-.103.087-.213.16-.32.242a9.93 9.93 0 01-4.947 1.995c-.03.003-.06.01-.091.013a10.287 10.287 0 01-2.037 0c-.03-.003-.06-.01-.092-.013a9.937 9.937 0 01-4.946-1.995c-.107-.082-.217-.157-.32-.242-.092-.076-.177-.161-.267-.241-.158-.142-.317-.282-.468-.434a9.966 9.966 0 01-2.892-7.023c0-5.515 4.485-10 10-10s10 4.485 10 10a9.93 9.93 0 01-2.885 7.023zM0 63.528h48.333v16.277l10-6 10 6V63.528H80V.195H0z"/><path fill="#3295d1" d="M18.334 13.528v-3.333h43.333v3.333zm8.333 10v-3.333h26.666v3.333zM10 53.528v-3.333h18.333v3.333z"/></svg>