<svg xmlns="http://www.w3.org/2000/svg" width="80" height="80"><defs><linearGradient id="a" x1="-659" x2="-659" y1="-1832" y2="-1832" gradientUnits="userSpaceOnUse"><stop offset="0" stop-color="#46dbfb"/><stop offset="1" stop-color="#3295d1"/></linearGradient><linearGradient id="b" x1="-659" x2="-659" y1="-1832" y2="-1832" gradientUnits="userSpaceOnUse"><stop offset="0" stop-color="#46dbfb"/><stop offset="1" stop-color="#3295d1"/></linearGradient><linearGradient id="c" x1="-659" x2="-659" y1="-1832" y2="-1832" gradientUnits="userSpaceOnUse"><stop offset="0" stop-color="#46dbfb"/><stop offset="1" stop-color="#3295d1"/></linearGradient><linearGradient id="d" x1="-659" x2="-659" y1="-1832" y2="-1832" gradientUnits="userSpaceOnUse"><stop offset="0" stop-color="#46dbfb"/><stop offset="1" stop-color="#3295d1"/></linearGradient><linearGradient id="e" x1="-659" x2="-659" y1="-1832" y2="-1832" gradientUnits="userSpaceOnUse"><stop offset="0" stop-color="#46dbfb"/><stop offset="1" stop-color="#3295d1"/></linearGradient><linearGradient id="f" x1="-659" x2="-659" y1="-1832" y2="-1832" gradientUnits="userSpaceOnUse"><stop offset="0" stop-color="#46dbfb"/><stop offset="1" stop-color="#3295d1"/></linearGradient><linearGradient id="g" x1="-659" x2="-659" y1="-1832" y2="-1832" gradientUnits="userSpaceOnUse"><stop offset="0" stop-color="#46dbfb"/><stop offset="1" stop-color="#3295d1"/></linearGradient><linearGradient id="h" x1="-659" x2="-659" y1="-1832" y2="-1832" gradientUnits="userSpaceOnUse"><stop offset="0" stop-color="#46dbfb"/><stop offset="1" stop-color="#3295d1"/></linearGradient><linearGradient id="i" x1="-659" x2="-659" y1="-1832" y2="-1832" gradientUnits="userSpaceOnUse"><stop offset="0" stop-color="#46dbfb"/><stop offset="1" stop-color="#3295d1"/></linearGradient></defs><path fill="url(#a)" d="M40 70c-.921 0-1.667.745-1.667 1.667v6.666a1.666 1.666 0 103.334 0v-6.666C41.667 70.745 40.92 70 40 70z"/><path fill="url(#b)" d="M22.275 5.968a1.665 1.665 0 10-2.884 1.667l1.667 2.887a1.663 1.663 0 002.275.61 1.663 1.663 0 00.609-2.276z"/><path fill="url(#c)" d="M58.942 69.477a1.666 1.666 0 10-2.884 1.667l1.666 2.887a1.663 1.663 0 002.276.61 1.664 1.664 0 00.608-2.276z"/><path fill="url(#d)" d="M10.52 21.056L7.638 19.39A1.672 1.672 0 005.36 20a1.665 1.665 0 00.609 2.278l2.884 1.667a1.668 1.668 0 001.667-2.888z"/><path fill="url(#e)" d="M74.03 57.723l-2.884-1.667a1.67 1.67 0 00-2.276.61 1.665 1.665 0 00.61 2.277l2.883 1.667a1.667 1.667 0 001.667-2.887z"/><path fill="url(#f)" d="M10 40c0-.921-.745-1.667-1.667-1.667H1.667a1.666 1.666 0 100 3.334h6.666C9.255 41.667 10 40.92 10 40z"/><path fill="url(#g)" d="M8.854 56.056L5.97 57.723A1.665 1.665 0 005.361 60a1.664 1.664 0 002.276.61l2.884-1.667a1.665 1.665 0 00.609-2.277 1.665 1.665 0 00-2.276-.61z"/><path fill="url(#h)" d="M23.333 68.867a1.672 1.672 0 00-2.275.61l-1.667 2.888a1.665 1.665 0 102.884 1.666l1.667-2.887a1.664 1.664 0 00-.609-2.277z"/><path fill="url(#i)" d="M41.667 38.333V3.371c18.893.85 34.111 16.07 34.964 34.962zM40 0c-.921 0-1.667.745-1.667 1.667V40c0 .921.746 1.667 1.667 1.667h38.333C79.254 41.667 80 40.92 80 40 80 17.944 62.057 0 40 0z"/></svg>