<svg xmlns="http://www.w3.org/2000/svg" width="50" height="42"><g clip-path="url(#clip-7ec93af2-5eb9-4db1-a790-cfc84c36cd8a)"><path fill="#3295d1" d="M5.286 20.675C5.286 9.788 14.112.962 25 .962c10.887 0 19.713 8.826 19.713 19.713 0 10.888-8.826 19.714-19.713 19.714-10.888 0-19.714-8.826-19.714-19.714z"/><path fill="#3295d1" d="M9.415 20.675c0-8.607 6.978-15.584 15.585-15.584 8.606 0 15.584 6.977 15.584 15.584S33.606 36.26 24.999 36.26c-8.606 0-15.584-6.978-15.584-15.585z"/><path fill="#329fd1" d="M26.468 36.191c-.484.045-.973.068-1.468.069-8.607 0-15.585-6.978-15.585-15.585 0-8.607 6.978-15.584 15.585-15.584.495 0 .984.023 1.468.069-8.002.758-14.115 7.478-14.115 15.515 0 8.038 6.113 14.758 14.115 15.516z"/><path fill="#327bd1" d="M40.585 20.674c0 8.608-6.978 15.586-15.585 15.586-.496 0-.985-.023-1.47-.069 8.003-.758 14.116-7.478 14.116-15.516 0-8.037-6.113-14.757-14.115-15.515A16.06 16.06 0 0125 5.09c8.606 0 15.584 6.977 15.585 15.583z"/><path fill="#3295d1" d="M44.87 41.038H5.13a.501.501 0 01-.502-.502v-7.974a.501.501 0 01.502-.499h39.74c.276 0 .5.225.5.502v7.974a.501.501 0 01-.5.499z"/><path fill="#329fd1" d="M.784 33.812l1.051 2.741-1.051 2.742h3.843v-5.483z"/><path fill="#327bd1" d="M49.215 39.286l-1.051-2.741 1.051-2.742h-3.843v5.474z"/><path fill="#329fd1" d="M8.067 41.038H5.13a.501.501 0 01-.502-.502v-7.975a.501.501 0 01.502-.498h2.937a.501.501 0 00-.501.502v7.975a.501.501 0 00.501.498z"/><path fill="#327bd1" d="M45.37 32.56v7.976a.501.501 0 01-.5.502h-2.938a.501.501 0 00.501-.502v-7.975a.501.501 0 00-.501-.502h2.937c.277 0 .502.225.502.502z"/><path fill="#cfcfcf" d="M47.434 36.832l.642 1.673h-1.921v-3.907h1.92l-.641 1.672a.783.783 0 000 .562zm-2.846 3.425H5.411v-7.41h39.177zM35.32 31.28H14.68C5.21 22.062 11.739 5.874 25 5.874c13.262 0 19.789 16.19 10.32 25.406zM25 1.745c15.19 0 24.137 17.06 15.68 29.532h-3.217C46.487 20.655 38.902 4.307 25 4.307c-13.934 0-21.463 16.376-12.463 26.973H9.32C.866 18.808 9.807 1.745 25 1.745zM3.846 38.507H1.923l.642-1.673a.783.783 0 000-.562L1.923 34.6h1.921zm45.159-1.958l.943-2.456a.783.783 0 00-.732-1.064h-3.06v-.467a1.287 1.287 0 00-1.286-1.282h-2.327C50.776 17.7 40.952.178 24.999.178S-.782 17.692 7.457 31.28H5.13a1.287 1.287 0 00-1.285 1.285v.467H.784a.783.783 0 00-.732 1.061l.943 2.456-.943 2.456a.783.783 0 00.732 1.064h3.06v.467c0 .71.575 1.285 1.285 1.286h39.74c.71 0 1.285-.576 1.286-1.286v-.467h3.061a.783.783 0 00.732-1.064z"/><path fill="#cfcfcf" d="M17.742 21.448h-.122a.587.587 0 00-.528.33l-1.002 2.06-1.003-2.055a.587.587 0 00-.528-.33h-.121a.587.587 0 00-.52.86l1.526 2.897v1.693c0 .325.263.588.587.588h.125a.587.587 0 00.588-.588V25.21l1.52-2.905a.587.587 0 00-.522-.86zm4.822 1.167a.587.587 0 000-1.175h-2.35a.587.587 0 00-.588.588v4.878c0 .325.263.588.588.588h2.35a.587.587 0 000-1.175h-1.638v-1.292h1.403a.587.587 0 100-1.175h-1.403v-1.237zm3.781 2.497l.57-1.591.568 1.59zm1.33-3.245a.587.587 0 00-.552-.392h-.41a.587.587 0 00-.552.392l-1.763 4.84a.587.587 0 00.553.783h.126c.248 0 .47-.158.552-.392l.294-.826h1.969l.293.826a.589.589 0 00.553.392h.127a.587.587 0 00.552-.783zm5.184 2.238h-.756v-1.482h.756c.766 0 .865.391.865.724.001.509-.283.756-.864.756zm2.189-.756c0-1.153-.86-1.9-2.19-1.9H31.39a.587.587 0 00-.587.588v4.871c0 .325.263.588.587.588h.125a.587.587 0 00.588-.588v-1.645h.398l1.13 1.941a.587.587 0 00.507.294h.167a.587.587 0 00.504-.89l-.912-1.523a1.81 1.81 0 001.151-1.736zm-9.909-5.059c-.808 0-1.333-.33-1.607-1.002a.667.667 0 00-.617-.42h-.084a.668.668 0 00-.618.917c.49 1.23 1.514 1.802 2.913 1.802 1.911 0 3.098-1.21 3.098-3.157 0-1.452-.768-3.004-2.922-3.004-.551 0-1.092.155-1.56.447a.117.117 0 01-.183-.097V12.11c0-.065.053-.118.119-.118h3.34a.666.666 0 000-1.332h-4.172a.666.666 0 00-.666.666v3.854c0 .367.298.666.665.666h.671l.051-.12c.267-.629.845-.994 1.583-.994 1.102 0 1.665.579 1.665 1.72 0 .685-.217 1.836-1.672 1.836zm-4.926-1.55l-.207-1.215a.209.209 0 01.06-.185l.881-.86a.209.209 0 00-.116-.357l-1.217-.173a.209.209 0 01-.157-.115l-.547-1.106a.209.209 0 00-.375 0l-.546 1.106a.21.21 0 01-.157.115l-1.221.177a.209.209 0 00-.116.357l.881.86a.21.21 0 01.06.185l-.209 1.216a.209.209 0 00.304.22l1.092-.573a.21.21 0 01.195 0l1.09.569a.209.209 0 00.304-.22zm11.162-.353l1.092.574a.209.209 0 00.304-.22l-.209-1.217a.209.209 0 01.06-.185l.88-.86a.209.209 0 00-.115-.357l-1.219-.172a.209.209 0 01-.157-.115l-.55-1.11a.209.209 0 00-.374 0l-.547 1.107a.21.21 0 01-.155.118l-1.221.177a.209.209 0 00-.116.357l.881.86a.21.21 0 01.06.185l-.209 1.216a.209.209 0 00.304.22l1.092-.573a.21.21 0 01.195 0zM26.31 8.833a8 8 0 011.145.134.783.783 0 00.294-1.539 9.54 9.54 0 00-1.37-.16.784.784 0 10-.07 1.566zm3.683 1.043a11.238 11.238 0 013.125 2.463.784.784 0 101.216-.988 12.63 12.63 0 00-3.608-2.86.784.784 0 10-.733 1.385zM18.944 38.504l-.702-3.427-.711 3.427c-.056.26-.1.447-.132.559a.763.763 0 01-.17.303.414.414 0 01-.324.134.43.43 0 01-.268-.08.563.563 0 01-.17-.226 1.689 1.689 0 01-.107-.347 37.182 37.182 0 01-.074-.372l-.723-3.845a2.902 2.902 0 01-.06-.51.587.587 0 01.118-.375.358.358 0 01.293-.151.317.317 0 01.324.202c.069.19.117.387.145.588l.568 3.334.637-3.12c.047-.24.09-.422.127-.546a.807.807 0 01.183-.323.451.451 0 01.347-.136.43.43 0 01.344.142c.08.089.137.195.17.309.032.112.074.296.128.553l.642 3.12.57-3.333c.027-.174.053-.31.077-.41a.709.709 0 01.128-.265.311.311 0 01.262-.116c.116 0 .226.055.294.15.08.108.121.241.115.376-.008.172-.03.342-.065.51l-.723 3.845c-.05.261-.09.452-.122.571a.801.801 0 01-.166.317.411.411 0 01-.33.137.417.417 0 01-.323-.133.734.734 0 01-.168-.293 7.37 7.37 0 01-.134-.57zm5.678-.826a1.486 1.486 0 01-.45.686.98.98 0 01-1.104.094 1.194 1.194 0 01-.392-.392 2.038 2.038 0 01-.263-.652 3.819 3.819 0 01-.098-.881 3.729 3.729 0 01.098-.87 2.04 2.04 0 01.254-.638c.097-.155.229-.285.385-.38a.949.949 0 01.49-.13 1 1 0 01.656.236c.209.186.361.427.44.695.108.352.16.719.153 1.087a3.37 3.37 0 01-.17 1.145zm-1.08-4.082a1.885 1.885 0 00-.89.207 1.86 1.86 0 00-.663.588 2.84 2.84 0 00-.416.935 4.75 4.75 0 00-.141 1.205c-.003.403.043.804.138 1.195.078.338.216.658.407.947.171.255.402.464.672.61a2.05 2.05 0 001.82.006 1.87 1.87 0 00.669-.608c.19-.286.329-.604.408-.939a4.96 4.96 0 00.139-1.201 4.444 4.444 0 00-.252-1.561 2.196 2.196 0 00-.732-1.024 1.886 1.886 0 00-1.16-.36zm4.576.966c.302 0 .503.026.602.08.11.061.2.155.255.27.063.13.095.274.092.419a.86.86 0 01-.114.476.613.613 0 01-.33.246 1.704 1.704 0 01-.532.073h-.784v-1.567h.81zm-.503 2.397a.822.822 0 01.39.083c.124.075.228.18.304.303.13.206.243.422.339.647l.352.771c.082.182.148.32.196.413a.815.815 0 00.173.232.356.356 0 00.249.092.38.38 0 00.22-.065.503.503 0 00.205-.4 1.603 1.603 0 00-.1-.399 5.729 5.729 0 00-.64-1.33 1.798 1.798 0 00-.447-.483c.33-.08.624-.271.83-.542.183-.254.275-.594.275-1.02 0-.199-.027-.396-.082-.587a1.525 1.525 0 00-.238-.49 1.142 1.142 0 00-.74-.457 3.328 3.328 0 00-.506-.034h-1.43a.484.484 0 00-.41.168c-.086.112-.128.292-.128.541v4.392a.98.98 0 00.116.525.366.366 0 00.326.18.372.372 0 00.317-.172.933.933 0 00.121-.533v-1.835h.308zm4.065-2.661V36.3l1.726-2.369a1.84 1.84 0 01.212-.253.326.326 0 01.232-.082.374.374 0 01.306.145c.08.102.121.228.118.357a.805.805 0 01-.196.502l-1.069 1.333 1.232 2.321a3.2 3.2 0 01.196.423c.042.113.064.232.066.353a.508.508 0 01-.114.33.377.377 0 01-.31.14.43.43 0 01-.298-.103.833.833 0 01-.196-.274l-.142-.312-1.039-2.103-.72.908v1.18a.916.916 0 01-.124.531.378.378 0 01-.32.173.354.354 0 01-.216-.078.5.5 0 01-.16-.21.858.858 0 01-.05-.254 7.367 7.367 0 01-.008-.417v-4.243a.957.957 0 01.116-.526.364.364 0 01.318-.175.377.377 0 01.321.173c.092.16.133.344.119.528z"/></g></svg>