<svg xmlns="http://www.w3.org/2000/svg" width="50" height="40"><g clip-path="url(#clip-00ccd1cf-d8d1-4413-b8bc-99e5e58f8ba8)"><path fill="#3295d1" d="M41.25 35c.69 0 1.25.56 1.25 1.25v2.5c0 .69-.56 1.25-1.25 1.25H8.75c-.69 0-1.25-.56-1.25-1.25v-2.5c0-.69.56-1.25 1.25-1.25H22.5V11.973A6.255 6.255 0 0118.876 7.5H8.75c-.69 0-1.25-.56-1.25-1.25v-2.5c0-.69.56-1.25 1.25-1.25h11.278a6.194 6.194 0 019.944 0H41.25c.69 0 1.25.56 1.25 1.25v2.5c0 .69-.56 1.25-1.25 1.25H31.124a6.255 6.255 0 01-3.624 4.473V35zm4.375-10L40 13.75 34.375 25zM40 32.5c-5.523 0-10-2.798-10-6.25 0-1.224-.161-.566 6.65-14.18 1.382-2.763 5.33-2.757 6.71 0C50.104 25.568 50 24.986 50 26.25c0 3.452-4.477 6.25-10 6.25zM4.375 25h11.25L10 13.75zM20 26.25c0 3.452-4.477 6.25-10 6.25-5.522 0-10-2.798-10-6.25 0-1.224-.16-.566 6.647-14.18 1.381-2.763 5.33-2.757 6.709 0C20.105 25.568 20 24.986 20 26.25z"/></g></svg>