<svg xmlns="http://www.w3.org/2000/svg" width="80" height="64"><defs><linearGradient id="a" x1="0" x2="83.56" y1="32" y2="32" gradientUnits="userSpaceOnUse"><stop offset="0" stop-color="#46dbfb"/><stop offset="1" stop-color="#3295d1"/></linearGradient><linearGradient id="c" x1="-905" x2="-905" y1="-1840" y2="-1840" gradientUnits="userSpaceOnUse"><stop offset="0" stop-color="#46dbfb"/><stop offset="1" stop-color="#3295d1"/></linearGradient><linearGradient id="d" x1="-905" x2="-905" y1="-1840" y2="-1840" gradientUnits="userSpaceOnUse"><stop offset="0" stop-color="#46dbfb"/><stop offset="1" stop-color="#3295d1"/></linearGradient><linearGradient id="e" x1="-905" x2="-905" y1="-1840" y2="-1840" gradientUnits="userSpaceOnUse"><stop offset="0" stop-color="#46dbfb"/><stop offset="1" stop-color="#3295d1"/></linearGradient><clipPath id="b"><path d="M0 72V-8h80v80z"/></clipPath></defs><path fill="url(#a)" d="M0 72V-8h80v80z"/><g clip-path="url(#b)"><path fill="url(#c)" d="M66.38 59.36c-1.088.278-2.206.42-3.329.42-7.423.002-13.443-6.014-13.445-13.438-.003-7.424 6.014-13.444 13.438-13.446A13.442 13.442 0 0175.12 40.43l.953 2.57c1.841 7.194-2.499 14.519-9.693 16.36zm-16.6-40.596c0-4.587 3.771-8.32 8.406-8.32a8.382 8.382 0 014.246 1.151c.086.064.177.12.273.167a8.383 8.383 0 013.483 4.538l5.79 15.637c-7.365-4.574-16.995-2.843-22.305 4.009zm6.698-14.55a5.153 5.153 0 014.766 3.123 11.94 11.94 0 00-9.915 1.766c.178-2.716 2.442-4.89 5.15-4.89zM46.203 30.067h-12.4l-.058-9.292h12.516zm-.04 6.136h-12.32l-.018-2.63H46.18zM29.027 52.25a13.44 13.44 0 01-12.073 7.53C9.528 59.778 3.51 53.756 3.512 46.33c0-1.123.142-2.241.42-3.329l.952-2.571c3.264-6.667 11.315-9.425 17.981-6.161 6.667 3.264 9.426 11.314 6.162 17.981zM13.817 16.3c.009-.02.016-.042.023-.064a8.413 8.413 0 0114.994-2.046c.033.058.07.115.109.169a8.23 8.23 0 011.282 4.418l.11 17.171c-5.31-6.853-14.942-8.585-22.307-4.011zm9.711-12c2.678 0 4.923 2.126 5.145 4.801a11.94 11.94 0 00-9.87-1.773A5.158 5.158 0 0123.528 4.3zm56.038 38.214a1.75 1.75 0 00-.101-.454l-.044-.12a16.798 16.798 0 00-1.073-2.898l-8.86-23.927a11.885 11.885 0 00-4.384-5.964l-.316-2.24a1.76 1.76 0 00-.073-.31A8.65 8.65 0 0056.478.708c-4.673 0-8.56 3.832-8.668 8.542v.078l.075 3.463a11.768 11.768 0 00-1.525 4.48H33.644a11.777 11.777 0 00-1.523-4.475l.074-3.403v-.068c-.107-4.71-3.996-8.537-8.668-8.537a8.652 8.652 0 00-8.236 5.896c-.033.099-.057.2-.071.302l-.318 2.165a11.887 11.887 0 00-4.384 5.963L1.659 39.04a16.801 16.801 0 00-1.073 2.898l-.044.12c-.054.146-.088.3-.1.455-2.114 9.12 3.566 18.225 12.685 20.338 9.12 2.113 18.225-3.567 20.338-12.686a16.946 16.946 0 00.428-4.378 2.28 2.28 0 00.01-.203l-.038-5.874h12.277l-.039 6.224c0 .03.003.064.004.093-.002.102-.004.206-.004.307.003 9.36 7.594 16.946 16.954 16.943 9.36-.003 16.946-7.593 16.943-16.953 0-1.283-.147-2.562-.435-3.812z"/><path fill="url(#d)" d="M16.954 54.841a8.503 8.503 0 118.503-8.503 8.513 8.513 0 01-8.503 8.503zm0-20.513c-6.633 0-12.01 5.377-12.01 12.01s5.377 12.01 12.01 12.01 12.01-5.377 12.01-12.01c-.007-6.63-5.38-12.002-12.01-12.01z"/><path fill="url(#e)" d="M62.838 54.841a8.503 8.503 0 118.503-8.503 8.513 8.513 0 01-8.503 8.503zm0-20.513c-6.633 0-12.01 5.377-12.01 12.01s5.377 12.01 12.01 12.01 12.01-5.377 12.01-12.01c-.008-6.63-5.38-12.002-12.01-12.01z"/></g></svg>