<svg id="Capa_1" data-name="Capa 1" xmlns="http://www.w3.org/2000/svg" viewBox="0 0 456.3 356.98"><defs><style>.cls-1{fill:#3295d1}</style></defs><path class="cls-1" d="M453.82 288.11a10 10 0 00-.58-2.59l-.25-.68a95.82 95.82 0 00-6.12-16.53l-50.53-136.48a67.79 67.79 0 00-25-34L369.53 85a10 10 0 00-.42-1.77 49.34 49.34 0 00-47-33.62c-26.65 0-48.83 21.86-49.44 48.73v.44l.43 19.76a67.12 67.12 0 00-8.7 25.55h-72.5a67.17 67.17 0 00-8.69-25.52l.42-19.41v-.38c-.61-26.87-22.79-48.69-49.44-48.69a49.35 49.35 0 00-47 33.63 10.05 10.05 0 00-.41 1.72L85 97.82a67.8 67.8 0 00-25 34L9.47 268.31a95.82 95.82 0 00-6.12 16.53l-.25.68a10 10 0 00-.58 2.6 96.67 96.67 0 10190.85 21.81c0-1 0-2.1-.06-3.14a11 11 0 00.06-1.16l-.21-33.5h70l-.22 35.5v2.28a96.67 96.67 0 10190.86-21.8zm-319.62-218c15.27 0 28.08 12.13 29.35 27.39a68.1 68.1 0 00-56.3-10.11 29.42 29.42 0 0126.94-17.24zM78.81 138.6l.13-.37a48 48 0 0185.52-11.67 10 10 0 00.62 1 46.94 46.94 0 017.31 25.2l.62 97.94a96.52 96.52 0 00-127.22-22.91zm86.75 205a76.66 76.66 0 01-68.86 43 76.69 76.69 0 01-74.27-95.7l5.43-14.67a76.66 76.66 0 11137.7 67.42zm97.74-91.52H193l-.1-15h70.5zm.23-35h-70.72l-.33-53h71.38zm58.61-147.42a29.39 29.39 0 0127.18 17.82 68.1 68.1 0 00-56.55 10.07c1.01-15.49 13.92-27.89 29.37-27.89zm-38.2 83c0-26.17 21.51-47.45 47.94-47.45a47.81 47.81 0 0124.22 6.56 10.08 10.08 0 001.56 1 47.81 47.81 0 0119.73 25.51c0 .13.08.25.13.37l33 89.18A96.52 96.52 0 00283.3 250.7zm94.67 231.54a76.69 76.69 0 01-19 2.39 76.67 76.67 0 1168.84-110.37l5.43 14.67a76.69 76.69 0 01-55.27 93.31z" transform="translate(0 -49.66)"/><path class="cls-1" d="M96.7 241.43a68.5 68.5 0 1068.5 68.5 68.5 68.5 0 00-68.5-68.5zm0 117a48.5 48.5 0 1148.5-48.5 48.5 48.5 0 01-48.5 48.5zm261.71-117a68.5 68.5 0 1068.5 68.5 68.5 68.5 0 00-68.5-68.5zm0 117a48.5 48.5 0 1148.5-48.5 48.5 48.5 0 01-48.5 48.5z" transform="translate(0 -49.66)"/></svg>