<svg xmlns="http://www.w3.org/2000/svg" width="40" height="50"><g clip-path="url(#clip-4d1177db-1553-402e-a06a-891f7f0a69cb)" fill="#3295d1"><path d="M38.262 46.973a1.66 1.66 0 01-1.66 1.66H3.398a1.66 1.66 0 01-1.66-1.66V3.027c0-.917.744-1.66 1.66-1.66h33.204c.916 0 1.66.743 1.66 1.66zM36.602 0H3.398A3.027 3.027 0 00.371 3.027v43.946A3.027 3.027 0 003.398 50h33.204a3.027 3.027 0 003.027-3.027V3.027A3.027 3.027 0 0036.602 0z"/><path d="M34.355 12.5H5.645V5.273h28.71zm.684-8.594H4.961a.684.684 0 00-.684.684v8.594c0 .377.306.683.684.683h30.078a.684.684 0 00.684-.683V4.59a.684.684 0 00-.684-.684zM23.027 44.727h-6.054v-5.265h6.054zm-6.738-6.632a.684.684 0 00-.684.683v6.632c0 .378.307.684.684.684h7.422a.684.684 0 00.684-.684v-6.632a.684.684 0 00-.684-.683zm-4.579 6.632H5.646v-5.265h6.066zm-6.75-6.632a.684.684 0 00-.683.683v6.632c0 .378.306.684.684.684h7.435a.684.684 0 00.684-.684v-6.632a.684.684 0 00-.685-.683zm18.067-4.208h-6.054v-5.268h6.054zm-6.738-6.635a.684.684 0 00-.684.684v6.634c0 .378.307.684.684.684h7.422a.684.684 0 00.684-.684v-6.634a.684.684 0 00-.684-.684zm-4.579 6.63H5.646v-5.263h6.066zm-6.75-6.63a.684.684 0 00-.683.684v6.634c0 .378.306.684.684.684h7.434a.684.684 0 00.683-.684v-6.634a.684.684 0 00-.683-.684zm29.395 17.475H28.29V28.619h6.066zm-6.75-17.475a.684.684 0 00-.683.684V45.41c0 .378.306.684.683.684h7.434a.684.684 0 00.684-.684V27.936a.684.684 0 00-.684-.684zm-4.578-4.216h-6.054v-5.263h6.054zm.684-6.63h-7.422a.684.684 0 00-.684.684v6.63c0 .377.307.683.684.683h7.422a.684.684 0 00.684-.683v-6.63a.684.684 0 00-.684-.684zm-12.001 6.63H5.646v-5.263h6.066zm.685-6.63H4.96a.684.684 0 00-.684.684v6.63c0 .377.306.683.684.683h7.434a.684.684 0 00.683-.683v-6.63a.684.684 0 00-.683-.684zm21.96 6.63H28.29v-5.263h6.066zm.684-6.63h-7.434a.684.684 0 00-.683.684v6.63c0 .377.306.683.683.683h7.434a.684.684 0 00.684-.683v-6.63a.684.684 0 00-.684-.684z"/></g></svg>