<svg xmlns="http://www.w3.org/2000/svg" width="30" height="30"><defs><linearGradient id="a" x1="0" x2="30" y1="15" y2="15" gradientUnits="userSpaceOnUse"><stop offset="0" stop-color="#46dbfb"/><stop offset="1" stop-color="#3295d1"/></linearGradient></defs><g clip-path="url(#clip-35ad717a-7c75-4c2e-a7a9-972eae22d0dc)"><path fill="url(#a)" d="M27.298 15c0-2.182.18-6.867-.603-8.841a5.062 5.062 0 00-2.85-2.851c-1.968-.777-6.66-.603-8.842-.603-2.181 0-6.866-.18-8.84.603a5.062 5.062 0 00-2.852 2.85C2.535 8.127 2.71 12.819 2.71 15c0 2.182-.18 6.867.602 8.84a5.062 5.062 0 002.851 2.852c1.968.776 6.66.602 8.841.602 2.182 0 6.867.181 8.841-.602a5.062 5.062 0 002.851-2.851c.784-1.968.603-6.66.603-8.841zm2.597-6.184c.14 2.476.14 9.892 0 12.368-.12 2.403-.67 4.53-2.423 6.284-1.754 1.76-3.882 2.31-6.285 2.423-2.476.14-9.898.14-12.374 0-2.403-.12-4.525-.67-6.285-2.423C.768 25.715.22 23.587.105 21.184c-.14-2.476-.14-9.899 0-12.375.12-2.403.663-4.53 2.423-6.284C4.288.77 6.417.222 8.813.109c2.476-.14 9.898-.14 12.374 0 2.403.12 4.531.669 6.285 2.422 1.76 1.754 2.309 3.882 2.423 6.285zM24.8 6.996a1.79 1.79 0 01-1.793 1.793 1.794 1.794 0 111.794-1.794zM20.003 15c0-2.757-2.242-5-5-5-2.757 0-5 2.243-5 5s2.25 5 5 5c2.751 0 5-2.243 5-5zm2.69 0a7.678 7.678 0 01-7.69 7.69A7.678 7.678 0 017.313 15a7.678 7.678 0 017.69-7.69 7.678 7.678 0 017.69 7.69z"/></g></svg>