<svg xmlns="http://www.w3.org/2000/svg" width="98" height="60"><defs><linearGradient id="a" x1="62.88" x2="76.9" y1="7.73" y2="7.73" gradientUnits="userSpaceOnUse"><stop offset="0" stop-color="#00ddfc"/><stop offset=".03" stop-color="#03d9fa"/><stop offset=".28" stop-color="#17bbe8"/><stop offset=".53" stop-color="#26a6db"/><stop offset=".77" stop-color="#2f99d4"/><stop offset="1" stop-color="#3295d1"/></linearGradient><linearGradient id="b" x1="41.85" x2="97.93" y1="38.56" y2="38.56" gradientUnits="userSpaceOnUse"><stop offset="0" stop-color="#00ddfc"/><stop offset=".03" stop-color="#03d9fa"/><stop offset=".28" stop-color="#17bbe8"/><stop offset=".53" stop-color="#26a6db"/><stop offset=".77" stop-color="#2f99d4"/><stop offset="1" stop-color="#3295d1"/></linearGradient><linearGradient id="c" x1="21.1" x2="35.12" y1="7.73" y2="7.73" gradientUnits="userSpaceOnUse"><stop offset=".02" stop-color="#cfcfcf"/><stop offset=".38" stop-color="#d2d2d2"/><stop offset=".62" stop-color="#dadada"/><stop offset=".81" stop-color="#e9e9e9"/><stop offset=".99" stop-color="#fefefe"/><stop offset="1" stop-color="#fff"/></linearGradient><linearGradient id="d" x1=".07" x2="56.15" y1="38.56" y2="38.56" gradientUnits="userSpaceOnUse"><stop offset=".02" stop-color="#cfcfcf"/><stop offset=".38" stop-color="#d2d2d2"/><stop offset=".62" stop-color="#dadada"/><stop offset=".81" stop-color="#e9e9e9"/><stop offset=".99" stop-color="#fefefe"/><stop offset="1" stop-color="#fff"/></linearGradient></defs><path fill="url(#a)" d="M62.88 7.727c0-3.784 3.138-6.853 7.01-6.853 3.871 0 7.01 3.069 7.01 6.853 0 3.785-3.139 6.853-7.01 6.853-3.872 0-7.01-3.068-7.01-6.853z"/><path fill="none" stroke="#707070" stroke-miterlimit="20" stroke-width=".14" d="M62.88 7.727c0-3.784 3.138-6.853 7.01-6.853 3.871 0 7.01 3.069 7.01 6.853 0 3.785-3.139 6.853-7.01 6.853-3.872 0-7.01-3.068-7.01-6.853z"/><path fill="url(#b)" d="M90.92 18.007H48.86c-3.867.011-6.999 3.073-7.01 6.853.011 3.78 3.143 6.842 7.01 6.853h14.02v20.56c.011 3.78 3.143 6.841 7.01 6.853 3.867-.012 6.998-3.073 7.01-6.853v-20.56h14.02c3.867-.011 6.998-3.073 7.01-6.853-.012-3.78-3.143-6.842-7.01-6.853z"/><path fill="none" stroke="#707070" stroke-miterlimit="20" stroke-width=".14" d="M90.92 18.007H48.86c-3.867.011-6.999 3.073-7.01 6.853v0c.011 3.78 3.143 6.842 7.01 6.853h14.02v20.56c.011 3.78 3.143 6.841 7.01 6.853v0c3.867-.012 6.998-3.073 7.01-6.853v-20.56 0h14.02c3.867-.011 6.998-3.073 7.01-6.853v0c-.012-3.78-3.143-6.842-7.01-6.853z"/><path fill="url(#c)" d="M21.1 7.727c0-3.784 3.139-6.853 7.01-6.853 3.872 0 7.01 3.069 7.01 6.853 0 3.785-3.138 6.853-7.01 6.853-3.871 0-7.01-3.068-7.01-6.853z"/><path fill="none" stroke="#707070" stroke-miterlimit="20" stroke-width=".14" d="M21.1 7.727c0-3.784 3.139-6.853 7.01-6.853 3.872 0 7.01 3.069 7.01 6.853 0 3.785-3.138 6.853-7.01 6.853-3.871 0-7.01-3.068-7.01-6.853z"/><path fill="url(#d)" d="M54.888 21.693c-.02.033-.049-.015-.08 0 0 .076-.026.094-.107.072a.664.664 0 01-.208-.068c-.034-.022-.063-.03-.094-.01a.074.074 0 00-.02.092c.017.044.043.085.062.129.01.017.01.039 0 .056-.017.023-.036 0-.053 0s-.072-.02-.107-.03c-.035-.01-.046 0-.056-.017-.1-.137-.269-.101-.404-.15-.072-.028-.112-.067-.086-.146a.068.068 0 00-.034-.086.214.214 0 01-.066-.089.096.096 0 00-.13-.037.822.822 0 01-.265.075.532.532 0 00-.334.196.273.273 0 01-.299.039c-.023 0-.042-.04-.068-.02-.027.018 0 .04 0 .062a.213.213 0 01-.073.19.285.285 0 00-.066.327.252.252 0 01-.14.318c-.055.022-.06.062-.083.103-.048.12-.09.244-.125.37a1.578 1.578 0 00-.094.296c-.01.039.002.08.032.107a.172.172 0 01.064.172.06.06 0 00.007.04.5.5 0 01-.009.468c-.008.019-.03.04-.011.06.06.064.085.151.071.237 0 .032.02.06.05.07.141.05.196.188.308.266a.196.196 0 01.069.123.26.26 0 00.14.162c.08.048.155.102.228.159.044.037.09.069.14.096a.143.143 0 00.166-.013.488.488 0 01.429-.086.05.05 0 00.048 0c.082-.059.168-.114.248-.177a.447.447 0 01.254-.083c.032 0 .061.021.071.052l.011.022c.086.163.13.17.265.05a.24.24 0 01.115.275 1.02 1.02 0 01-.057.372.113.113 0 00.011.081.583.583 0 00.073.137c.11.159.16.35.14.54 0 .121 0 .244-.014.365a.405.405 0 01-.059.155c-.14.242-.28.492-.237.784.007.203-.037.405-.127.588a.991.991 0 00-.052.192.822.822 0 01-.153.41.143.143 0 00-.038.126l.231-.12c-.115.274-1.066 1.097-1.724 1.494a6.705 6.705 0 01-2.152.823 6.577 6.577 0 01-2.316.059l.115-.043a.35.35 0 00-.068 0c-.215.063-.42-.012-.62-.059a6.697 6.697 0 01-2.69-1.285c-2.658-2.098-3.29-5.809-1.47-8.635.02-.03.022-.072.059-.09.074.028.02.092.04.136-.02.082-.05.16-.087.236l.035.034c.05.036.031.085.01.12a1.313 1.313 0 00-.112.471c-.05.239.021.488-.074.718a.325.325 0 00-.016.266c.042.121.11.232.2.324.043.035.051.091.096.127.045.036.065.044.107.02.073-.042.119-.013.148.055 0 0 .007.01.007.016a.393.393 0 00.28.33c.102.038.099.101.132.162a.3.3 0 01.064.252.046.046 0 00.004.037c.007.011.019.02.032.022.085 0 .092.07.123.118.031.048.055.096.122.11.068.016.08.068.114.109.014.018.015.044.048.026.032-.018.039-.025.025-.052-.04-.076.053-.077.07-.122 0-.018.04-.018.052 0 .012.018.087.053.064.114-.008.022 0 .037.013.054.06.12.078.255.048.384-.012.05.032.102-.013.152-.025.03-.034.065-.084.072-.05.006-.018.086-.06.117-.009 0-.009.03-.024.04-.016.011-.076.008-.08.052-.011.109-.111.198-.069.316.008.023.008.052.04.059.083.019.047.064.012.091a.185.185 0 00-.062.236.256.256 0 00.089.137.331.331 0 01.085.124c.116.233.262.453.369.685a.921.921 0 00.457.422c.092.05.14.137.234.192.013.007.017.034.022.052.058.143.083.297.075.45 0 .023.006.045.015.065.037.13.055.263.056.398a.702.702 0 00.082.36.528.528 0 01.04.368.18.18 0 00.042.154c.066.08.065.184.108.275.018.034.025.07.069.086.013-.044-.032-.07-.02-.107.05.02.14.171.12.207-.022.036-.031.023-.038.052-.007.029 0 .064.04.071.04.007.058.025.048.048-.038.095.056.109.095.148.04.04.14.077.195.137a.095.095 0 00.076.035c.116.056.161.038.175-.07.021-.044.03-.102.063-.13.063-.05.021-.066-.018-.085-.04-.02-.07-.024-.104-.039-.033-.015-.04-.023-.039-.05a.047.047 0 01.045-.043c.05 0 .074-.022.053-.074-.011-.029.018-.044.031-.064a.297.297 0 01-.104-.13c.058-.016.101.017.15.016.05-.002.08 0 .058-.063-.023-.063-.009-.093.071-.084a.577.577 0 00.237-.027.162.162 0 00.104-.081c.028-.056-.045-.074-.046-.095 0-.104-.113-.098-.157-.157.102.028.205.05.31.067.055 0 .109-.02.15-.056.112-.074.12-.207.197-.298.016-.018.03-.046.05-.03.07.058.064-.02.086-.044.023-.025.034-.06.059-.07.072-.029.079-.08.07-.137-.008-.056-.038-.137.013-.177a.528.528 0 01.266-.157.12.12 0 00.07-.025.374.374 0 01.295-.063c.039 0 .061-.022.092-.038.124-.06.122-.209.223-.274a.074.074 0 00.024-.069.346.346 0 01.046-.137.403.403 0 00.05-.274.403.403 0 01.032-.262c0-.008.008-.022.01-.022.116.017.116-.09.16-.147a.802.802 0 01.14-.137.406.406 0 00.14-.527.117.117 0 00-.13-.076.247.247 0 01-.214-.082c-.045-.042-.094-.082-.14-.12a.205.205 0 00-.152-.049.64.64 0 01-.328-.045c-.068-.027-.124.033-.186.045.017-.11.013-.1-.105-.16a1.524 1.524 0 00-.225-.099c-.07-.023-.116-.012-.147.054a.063.063 0 01-.06.037c.076-.145.084-.137-.101-.165a.108.108 0 00-.11.028c-.025.05-.068.014-.08 0-.01-.014 0-.05.034-.062.037-.035.076-.068.11-.107.033-.038.039-.068 0-.083-.04-.015-.079-.07-.087-.121-.045-.255-.243-.344-.46-.411-.079-.022-.163.018-.245-.008a.163.163 0 01-.072-.036.71.71 0 01-.192-.22.16.16 0 00-.087-.064c-.063-.023-.129-.03-.126-.126 0-.031-.06-.053-.104-.064-.043-.011-.09-.029-.084-.092 0-.017 0-.017-.028-.018a.373.373 0 00-.19.045.116.116 0 01-.14-.013.198.198 0 00-.18-.047c-.05 0-.089 0-.1-.06a.08.08 0 00-.062-.065.108.108 0 01-.103-.1c0 .099-.056.117-.126.13-.041.007-.054.033-.034.074a.374.374 0 01.021.098.044.044 0 01-.007.037.046.046 0 01-.032.019c-.035.007-.042-.016-.052-.043a.083.083 0 010-.08.135.135 0 00.02-.137c-.016-.037.022-.044.046-.058.024-.014.05-.027.032-.058-.018-.03-.05-.02-.073 0a.486.486 0 01-.315.113.091.091 0 00-.075.082.2.2 0 01-.078.137.162.162 0 00-.076.13.384.384 0 00-.106-.157.17.17 0 00-.204-.033c-.123.064-.162.045-.225-.078a.237.237 0 00-.016-.03.29.29 0 01-.043-.266c.028-.09.05-.184.077-.274a.157.157 0 00-.017-.141.165.165 0 00-.123-.073c-.07-.009-.14-.011-.214-.017-.072-.005-.075-.033-.035-.075a.287.287 0 00.056-.128c.014-.043 0-.115.073-.126a.71.71 0 01.14-.288c.013-.021 0-.04-.027-.052a.199.199 0 00-.173-.003.191.191 0 00-.108.13c-.018.07-.076.102-.108.156-.01.016-.025.01-.036 0-.012-.01-.048-.013-.073-.008a.16.16 0 01-.142-.024.152.152 0 01-.063-.126 1.01 1.01 0 01.14-.67c.055-.09.06-.193.126-.274a.235.235 0 01.152-.107c.06-.007.08-.095.151-.074.072.02.14-.018.178.071.019.044.087.026.104.017.017-.01.01-.065-.02-.111l.296.028c.015.001.028.01.033.024.023.049.044.093.115.049.028-.018.042.02.05.042a.37.37 0 010 .23.454.454 0 00.027.257c.014.047.047.05.08.011a.292.292 0 00.067-.186v-.227a.41.41 0 01.26-.397 2.74 2.74 0 00.315-.171c.061-.04.14-.12.123-.181-.015-.087.046-.124.062-.187a.127.127 0 01.04-.104c.016.048-.015.073-.025.104l.028.058a.125.125 0 00.06-.152c.038.023.066.027.099 0 .032-.028.056-.084.105-.104.011-.06.052-.073.106-.065.055.008.097 0 .14-.012.044-.013.055-.007.052-.06-.002-.054.064-.123.125-.157a.447.447 0 01.14-.038c.09-.014.16-.077.253-.09.049 0 .095-.032.14.014a.306.306 0 00-.194.079c-.014.015-.033.034-.016.059a.042.042 0 00.067 0c.083-.076.193-.073.292-.105.052-.024.105-.046.16-.065.075-.017 0-.074.022-.111-.045 0-.06.028-.081.049a.143.143 0 01-.2.036c-.058-.037-.109-.081-.054-.162.03-.044-.04 0-.042-.039.024-.021.059-.019.09-.027.033-.008.044-.015.043-.044-.002-.029-.024-.037-.048-.038h-.154c-.081.037-.167.066-.247.107a.38.38 0 01.262-.137.154.154 0 01.14-.074.182.182 0 01.052 0c.233.072.445-.013.658-.087.042-.015.09-.022.095-.082.006-.06-.035-.07-.057-.104-.062-.093-.188-.103-.241-.199-.007-.012-.035-.02-.017-.038.087-.095.011-.183-.011-.274-.01-.039-.037-.01-.05 0a.258.258 0 01-.14.096c-.029 0-.06.027-.085 0a.082.082 0 01-.017-.1.637.637 0 00.03-.076c-.06-.018-.054-.097-.096-.114-.07-.027-.153-.067-.228-.012a1.33 1.33 0 00-.104.115.688.688 0 00-.151.274.251.251 0 01-.21.137.125.125 0 00-.113.096.68.68 0 01-.083.157.112.112 0 01-.12.043c-.044 0-.027-.06-.023-.093a.29.29 0 01.089-.178c.038-.037.035-.066-.02-.071-.055-.006-.104-.05-.125-.114-.02-.063-.052-.101-.118-.09.065-.247.28-.316.486-.392.06-.025.122-.045.185-.062a.114.114 0 01.119-.07c.088 0 .183-.101.202-.193.008-.046.039-.088-.013-.126-.01 0-.04-.015-.025 0 .042.067 0 .082-.05.101-.051.02-.065.023-.096.037-.03.014-.03.01-.025-.023.004-.033-.028 0-.045 0-.055.01-.118.034-.14-.051-.009-.037-.031-.016-.045-.01-.076.026-.076.028-.184-.01.115-.017.12-.117.188-.153a.404.404 0 01.248-.057c-.1.06-.211.08-.293.185.079 0 .157.006.234.016a.175.175 0 00.13-.068c.053-.062.14-.08.212-.125-.047-.02-.092.042-.14 0 .146-.166.357-.169.551-.214a.169.169 0 00.01-.01 6.857 6.857 0 013.795.299.085.085 0 01.044.03h-.12a.86.86 0 01-.128-.017c-.033-.007-.082-.015-.082.012s-.025.075.014.112a2.4 2.4 0 01.27.309.07.07 0 01.015.08c-.04.093.03.136.087.172.054.034.106.073.153.117.07.063.116.054.164-.024.02-.034.039-.008.056 0 .095.044.184.1.265.167.01.015.026.025.044.028a.067.067 0 00.051-.014.136.136 0 00-.062-.137.317.317 0 01-.106-.127.131.131 0 00-.09-.069.419.419 0 01-.27-.216c-.027-.068-.103-.084-.156-.146.075-.015.15.02.186.087a.828.828 0 00.302.227c.042.026.102.066.133-.026.013-.038.042-.01.062 0 .02.01.049.037.012.055-.036.018-.03.059-.017.083.013.025.031.057.085.033.029-.013.078.033.116.068-.03.017-.053-.017-.087 0 .034.11.196.117.205.249-.058-.012-.124-.034-.133.06a.02.02 0 01-.013.016.02.02 0 01-.02-.003c-.053-.037-.09 0-.133.024a.222.222 0 00-.126.158c-.069.034 0 .071 0 .1 0 .029-.079.037-.069.092.017.096 0 .122-.102.129 0 .028.049.042.025.07-.024.03-.043 0-.066 0-.022 0-.077-.014-.081.021-.004.036.04.048.074.057a.493.493 0 01.369.316c.028.073.018.092-.06.095-.103 0-.206.01-.309 0a.123.123 0 00-.106.056c-.024.029.02.052.036.075a.718.718 0 01.108.29c.008.049.011.1.07.123a.06.06 0 01.032.056c0 .078.055.082.106.065a.126.126 0 01.155.048c.03.034.059.067.093 0a.105.105 0 01.106-.07c.04-.009.101 0 .12-.03a.448.448 0 00.062-.198c0-.024-.02-.031-.03-.046a.182.182 0 01.015-.233c.044-.043.065-.085.008-.137a.064.064 0 01-.022-.083c.011-.02.027-.04.053-.016.087.014.156 0 .17-.103 0-.041.035-.025.059-.016a.524.524 0 01.165.1.494.494 0 00.244.127c.039.01.074.032.1.062h.03c.038-.008.099 0 .072-.069-.102-.066-.23-.083-.317-.18-.053-.057-.15-.066-.196-.136-.014-.022-.052-.043-.021-.07.03-.028.042.026.06.027.124.014.19.137.31.152.11.027.204.094.265.187.064.07.135.134.212.19.026 0 .06.013.066-.031a.47.47 0 00-.075-.1c-.056-.044-.022-.088 0-.114.023-.026.068.01.084.038.081.13.197.236.334.306.058.029.073.02.048-.05l.085.032c.028-.023 0-.05.007-.075h.024a.979.979 0 01.175.257c.041.077.08.155.12.233a.088.088 0 01.016.098zm-7.262-3.202c-.028 0-.049.012-.049.045 0-.029.024-.031.048-.033a.176.176 0 00.1-.039.441.441 0 01-.099.027zM7.08 18.007C3.213 18.018.082 21.08.07 24.86c.012 3.78 3.143 6.842 7.01 6.853H21.1v20.56c.012 3.78 3.143 6.841 7.01 6.853 3.867-.012 6.999-3.073 7.01-6.853v-20.56h14.02c3.867-.011 6.999-3.073 7.01-6.853-.011-3.78-3.143-6.842-7.01-6.853z"/><path fill="none" stroke="#707070" stroke-miterlimit="20" stroke-width=".14" d="M54.888 21.693c-.02.033-.049-.015-.08 0 0 .076-.026.094-.107.072a.664.664 0 01-.208-.068c-.034-.022-.063-.03-.094-.01a.074.074 0 00-.02.092c.017.044.043.085.062.129.01.017.01.039 0 .056-.017.023-.036 0-.053 0s-.072-.02-.107-.03c-.035-.01-.046 0-.056-.017-.1-.137-.269-.101-.404-.15-.072-.028-.112-.067-.086-.146a.068.068 0 00-.034-.086.214.214 0 01-.066-.089.096.096 0 00-.13-.037.822.822 0 01-.265.075.532.532 0 00-.334.196.273.273 0 01-.299.039c-.023 0-.042-.04-.068-.02-.027.018 0 .04 0 .062a.213.213 0 01-.073.19.285.285 0 00-.066.327.252.252 0 01-.14.318c-.055.022-.06.062-.083.103-.048.12-.09.244-.125.37a1.578 1.578 0 00-.094.296c-.01.039.002.08.032.107a.172.172 0 01.064.172.06.06 0 00.007.04.5.5 0 01-.009.468c-.008.019-.03.04-.011.06.06.064.085.151.071.237 0 .032.02.06.05.07.141.05.196.188.308.266a.196.196 0 01.069.123.26.26 0 00.14.162c.08.048.155.102.228.159.044.037.09.069.14.096a.143.143 0 00.166-.013.488.488 0 01.429-.086.05.05 0 00.048 0c.082-.059.168-.114.248-.177a.447.447 0 01.254-.083c.032 0 .061.021.071.052l.011.022c.086.163.13.17.265.05a.24.24 0 01.115.275 1.02 1.02 0 01-.057.372.113.113 0 00.011.081.583.583 0 00.073.137c.11.159.16.35.14.54 0 .121 0 .244-.014.365a.405.405 0 01-.059.155c-.14.242-.28.492-.237.784.007.203-.037.405-.127.588a.991.991 0 00-.052.192.822.822 0 01-.153.41.143.143 0 00-.038.126l.231-.12c-.115.274-1.066 1.097-1.724 1.494a6.705 6.705 0 01-2.152.823 6.577 6.577 0 01-2.316.059l.115-.043a.35.35 0 00-.068 0c-.215.063-.42-.012-.62-.059a6.697 6.697 0 01-2.69-1.285c-2.658-2.098-3.29-5.809-1.47-8.635.02-.03.022-.072.059-.09.074.028.02.092.04.136-.02.082-.05.16-.087.236l.035.034c.05.036.031.085.01.12a1.313 1.313 0 00-.112.471c-.05.239.021.488-.074.718a.325.325 0 00-.016.266c.042.121.11.232.2.324.043.035.051.091.096.127.045.036.065.044.107.02.073-.042.119-.013.148.055 0 0 .007.01.007.016a.393.393 0 00.28.33c.102.038.099.101.132.162a.3.3 0 01.064.252.046.046 0 00.004.037c.007.011.019.02.032.022.085 0 .092.07.123.118.031.048.055.096.122.11.068.016.08.068.114.109.014.018.015.044.048.026.032-.018.039-.025.025-.052-.04-.076.053-.077.07-.122 0-.018.04-.018.052 0 .012.018.087.053.064.114-.008.022 0 .037.013.054.06.12.078.255.048.384-.012.05.032.102-.013.152-.025.03-.034.065-.084.072-.05.006-.018.086-.06.117-.009 0-.009.03-.024.04-.016.011-.076.008-.08.052-.011.109-.111.198-.069.316.008.023.008.052.04.059.083.019.047.064.012.091a.185.185 0 00-.062.236.256.256 0 00.089.137.331.331 0 01.085.124c.116.233.262.453.369.685a.921.921 0 00.457.422c.092.05.14.137.234.192.013.007.017.034.022.052.058.143.083.297.075.45 0 .023.006.045.015.065.037.13.055.263.056.398a.702.702 0 00.082.36.528.528 0 01.04.368.18.18 0 00.042.154c.066.08.065.184.108.275.018.034.025.07.069.086.013-.044-.032-.07-.02-.107.05.02.14.171.12.207-.022.036-.031.023-.038.052-.007.029 0 .064.04.071.04.007.058.025.048.048-.038.095.056.109.095.148.04.04.14.077.195.137a.095.095 0 00.076.035c.116.056.161.038.175-.07.021-.044.03-.102.063-.13.063-.05.021-.066-.018-.085-.04-.02-.07-.024-.104-.039-.033-.015-.04-.023-.039-.05a.047.047 0 01.045-.043c.05 0 .074-.022.053-.074-.011-.029.018-.044.031-.064a.297.297 0 01-.104-.13c.058-.016.101.017.15.016.05-.002.08 0 .058-.063-.023-.063-.009-.093.071-.084a.577.577 0 00.237-.027.162.162 0 00.104-.081c.028-.056-.045-.074-.046-.095 0-.104-.113-.098-.157-.157.102.028.205.05.31.067.055 0 .109-.02.15-.056.112-.074.12-.207.197-.298.016-.018.03-.046.05-.03.07.058.064-.02.086-.044.023-.025.034-.06.059-.07.072-.029.079-.08.07-.137-.008-.056-.038-.137.013-.177a.528.528 0 01.266-.157.12.12 0 00.07-.025.374.374 0 01.295-.063c.039 0 .061-.022.092-.038.124-.06.122-.209.223-.274a.074.074 0 00.024-.069.346.346 0 01.046-.137.403.403 0 00.05-.274.403.403 0 01.032-.262c0-.008.008-.022.01-.022.116.017.116-.09.16-.147a.802.802 0 01.14-.137.406.406 0 00.14-.527.117.117 0 00-.13-.076.247.247 0 01-.214-.082c-.045-.042-.094-.082-.14-.12a.205.205 0 00-.152-.049.64.64 0 01-.328-.045c-.068-.027-.124.033-.186.045.017-.11.013-.1-.105-.16a1.524 1.524 0 00-.225-.099c-.07-.023-.116-.012-.147.054a.063.063 0 01-.06.037c.076-.145.084-.137-.101-.165a.108.108 0 00-.11.028c-.025.05-.068.014-.08 0-.01-.014 0-.05.034-.062.037-.035.076-.068.11-.107.033-.038.039-.068 0-.083-.04-.015-.079-.07-.087-.121-.045-.255-.243-.344-.46-.411-.079-.022-.163.018-.245-.008a.163.163 0 01-.072-.036.71.71 0 01-.192-.22.16.16 0 00-.087-.064c-.063-.023-.129-.03-.126-.126 0-.031-.06-.053-.104-.064-.043-.011-.09-.029-.084-.092 0-.017 0-.017-.028-.018a.373.373 0 00-.19.045.116.116 0 01-.14-.013.198.198 0 00-.18-.047c-.05 0-.089 0-.1-.06a.08.08 0 00-.062-.065.108.108 0 01-.103-.1c0 .099-.056.117-.126.13-.041.007-.054.033-.034.074a.374.374 0 01.021.098.044.044 0 01-.007.037.046.046 0 01-.032.019c-.035.007-.042-.016-.052-.043a.083.083 0 010-.08.135.135 0 00.02-.137c-.016-.037.022-.044.046-.058.024-.014.05-.027.032-.058-.018-.03-.05-.02-.073 0a.486.486 0 01-.315.113.091.091 0 00-.075.082.2.2 0 01-.078.137.162.162 0 00-.076.13.384.384 0 00-.106-.157.17.17 0 00-.204-.033c-.123.064-.162.045-.225-.078a.237.237 0 00-.016-.03.29.29 0 01-.043-.266c.028-.09.05-.184.077-.274a.157.157 0 00-.017-.141.165.165 0 00-.123-.073c-.07-.009-.14-.011-.214-.017-.072-.005-.075-.033-.035-.075a.287.287 0 00.056-.128c.014-.043 0-.115.073-.126a.71.71 0 01.14-.288c.013-.021 0-.04-.027-.052a.199.199 0 00-.173-.003.191.191 0 00-.108.13c-.018.07-.076.102-.108.156-.01.016-.025.01-.036 0-.012-.01-.048-.013-.073-.008a.16.16 0 01-.142-.024.152.152 0 01-.063-.126 1.01 1.01 0 01.14-.67c.055-.09.06-.193.126-.274a.235.235 0 01.152-.107c.06-.007.08-.095.151-.074.072.02.14-.018.178.071.019.044.087.026.104.017.017-.01.01-.065-.02-.111l.296.028c.015.001.028.01.033.024.023.049.044.093.115.049.028-.018.042.02.05.042a.37.37 0 010 .23.454.454 0 00.027.257c.014.047.047.05.08.011a.292.292 0 00.067-.186v-.227a.41.41 0 01.26-.397 2.74 2.74 0 00.315-.171c.061-.04.14-.12.123-.181-.015-.087.046-.124.062-.187a.127.127 0 01.04-.104c.016.048-.015.073-.025.104l.028.058a.125.125 0 00.06-.152c.038.023.066.027.099 0 .032-.028.056-.084.105-.104.011-.06.052-.073.106-.065.055.008.097 0 .14-.012.044-.013.055-.007.052-.06-.002-.054.064-.123.125-.157a.447.447 0 01.14-.038c.09-.014.16-.077.253-.09.049 0 .095-.032.14.014a.306.306 0 00-.194.079c-.014.015-.033.034-.016.059a.042.042 0 00.067 0c.083-.076.193-.073.292-.105.052-.024.105-.046.16-.065.075-.017 0-.074.022-.111-.045 0-.06.028-.081.049a.143.143 0 01-.2.036c-.058-.037-.109-.081-.054-.162.03-.044-.04 0-.042-.039.024-.021.059-.019.09-.027.033-.008.044-.015.043-.044-.002-.029-.024-.037-.048-.038h-.154c-.081.037-.167.066-.247.107a.38.38 0 01.262-.137.154.154 0 01.14-.074.182.182 0 01.052 0c.233.072.445-.013.658-.087.042-.015.09-.022.095-.082.006-.06-.035-.07-.057-.104-.062-.093-.188-.103-.241-.199-.007-.012-.035-.02-.017-.038.087-.095.011-.183-.011-.274-.01-.039-.037-.01-.05 0a.258.258 0 01-.14.096c-.029 0-.06.027-.085 0a.082.082 0 01-.017-.1.637.637 0 00.03-.076c-.06-.018-.054-.097-.096-.114-.07-.027-.153-.067-.228-.012a1.33 1.33 0 00-.104.115.688.688 0 00-.151.274.251.251 0 01-.21.137.125.125 0 00-.113.096.68.68 0 01-.083.157.112.112 0 01-.12.043c-.044 0-.027-.06-.023-.093a.29.29 0 01.089-.178c.038-.037.035-.066-.02-.071-.055-.006-.104-.05-.125-.114-.02-.063-.052-.101-.118-.09.065-.247.28-.316.486-.392.06-.025.122-.045.185-.062a.114.114 0 01.119-.07c.088 0 .183-.101.202-.193.008-.046.039-.088-.013-.126-.01 0-.04-.015-.025 0 .042.067 0 .082-.05.101-.051.02-.065.023-.096.037-.03.014-.03.01-.025-.023.004-.033-.028 0-.045 0-.055.01-.118.034-.14-.051-.009-.037-.031-.016-.045-.01-.076.026-.076.028-.184-.01.115-.017.12-.117.188-.153a.404.404 0 01.248-.057c-.1.06-.211.08-.293.185.079 0 .157.006.234.016a.175.175 0 00.13-.068c.053-.062.14-.08.212-.125-.047-.02-.092.042-.14 0 .146-.166.357-.169.551-.214a.169.169 0 00.01-.01 6.857 6.857 0 013.795.299.085.085 0 01.044.03h-.12a.86.86 0 01-.128-.017c-.033-.007-.082-.015-.082.012s-.025.075.014.112a2.4 2.4 0 01.27.309.07.07 0 01.015.08c-.04.093.03.136.087.172.054.034.106.073.153.117.07.063.116.054.164-.024.02-.034.039-.008.056 0 .095.044.184.1.265.167.01.015.026.025.044.028a.067.067 0 00.051-.014.136.136 0 00-.062-.137.317.317 0 01-.106-.127.131.131 0 00-.09-.069.419.419 0 01-.27-.216c-.027-.068-.103-.084-.156-.146.075-.015.15.02.186.087a.828.828 0 00.302.227c.042.026.102.066.133-.026.013-.038.042-.01.062 0 .02.01.049.037.012.055-.036.018-.03.059-.017.083.013.025.031.057.085.033.029-.013.078.033.116.068-.03.017-.053-.017-.087 0 .034.11.196.117.205.249-.058-.012-.124-.034-.133.06a.02.02 0 01-.013.016.02.02 0 01-.02-.003c-.053-.037-.09 0-.133.024a.222.222 0 00-.126.158h0c-.069.034 0 .071 0 .1 0 .029-.079.037-.069.092.017.096 0 .122-.102.129 0 .028.049.042.025.07-.024.03-.043 0-.066 0-.022 0-.077-.014-.081.021-.004.036.04.048.074.057a.493.493 0 01.369.316c.028.073.018.092-.06.095-.103 0-.206.01-.309 0a.123.123 0 00-.106.056c-.024.029.02.052.036.075a.718.718 0 01.108.29c.008.049.011.1.07.123a.06.06 0 01.032.056c0 .078.055.082.106.065a.126.126 0 01.155.048c.03.034.059.067.093 0a.105.105 0 01.106-.07c.04-.009.101 0 .12-.03a.448.448 0 00.062-.198c0-.024-.02-.031-.03-.046a.182.182 0 01.015-.233c.044-.043.065-.085.008-.137a.064.064 0 01-.022-.083c.011-.02.027-.04.053-.016.087.014.156 0 .17-.103 0-.041.035-.025.059-.016a.524.524 0 01.165.1.494.494 0 00.244.127c.039.01.074.032.1.062h.03c.038-.008.099 0 .072-.069-.102-.066-.23-.083-.317-.18-.053-.057-.15-.066-.196-.136-.014-.022-.052-.043-.021-.07.03-.028.042.026.06.027.124.014.19.137.31.152.11.027.204.094.265.187.064.07.135.134.212.19.026 0 .06.013.066-.031a.47.47 0 00-.075-.1c-.056-.044-.022-.088 0-.114.023-.026.068.01.084.038.081.13.197.236.334.306.058.029.073.02.048-.05l.085.032c.028-.023 0-.05.007-.075h.024a.979.979 0 01.175.257c.041.077.08.155.12.233a.088.088 0 01.016.098zm-7.262-3.202c-.028 0-.049.012-.049.045 0-.029.024-.031.048-.033a.176.176 0 00.1-.039.441.441 0 01-.099.027zM7.08 18.007C3.213 18.018.082 21.08.07 24.86c.012 3.78 3.143 6.842 7.01 6.853H21.1v20.56c.012 3.78 3.143 6.841 7.01 6.853 3.867-.012 6.999-3.073 7.01-6.853v-20.56h14.02c3.867-.011 6.999-3.073 7.01-6.853h0c-.011-3.78-3.143-6.842-7.01-6.853z"/></svg>