<svg xmlns="http://www.w3.org/2000/svg" width="30" height="24"><path fill="#3295d1" d="M.626 2.576c4.118 3.487 11.342 9.621 13.466 11.534.285.258.59.39.908.39.317 0 .622-.13.906-.388 2.126-1.914 9.35-8.05 13.468-11.536a.625.625 0 00.088-.863A2.482 2.482 0 0027.5.75h-25c-.767 0-1.482.351-1.962.963a.625.625 0 00.088.863z"/><path fill="#3295d1" d="M29.637 4.465a.622.622 0 00-.666.09c-4.566 3.871-10.394 8.833-12.227 10.485-1.03.93-2.458.93-3.489-.001-1.954-1.76-8.499-7.324-12.226-10.484A.625.625 0 000 5.032V20.75c0 1.379 1.121 2.5 2.5 2.5h25c1.379 0 2.5-1.121 2.5-2.5V5.032a.625.625 0 00-.363-.567z"/></svg>