<svg xmlns="http://www.w3.org/2000/svg" width="31" height="24"><defs><linearGradient id="a" x1="-960" x2="-960" y1="-2980" y2="-2980" gradientUnits="userSpaceOnUse"><stop offset="0" stop-color="#46dbfb"/><stop offset="1" stop-color="#3295d1"/></linearGradient><linearGradient id="b" x1="-960" x2="-960" y1="-2980" y2="-2980" gradientUnits="userSpaceOnUse"><stop offset="0" stop-color="#46dbfb"/><stop offset="1" stop-color="#3295d1"/></linearGradient></defs><path fill="url(#a)" d="M1.126 2.576c4.118 3.487 11.342 9.621 13.466 11.534.285.258.59.39.908.39.317 0 .622-.13.906-.388 2.126-1.914 9.35-8.05 13.468-11.536a.625.625 0 00.088-.863A2.482 2.482 0 0028 .75H3c-.767 0-1.482.351-1.962.963a.625.625 0 00.088.863z"/><path fill="url(#b)" d="M30.137 4.465a.622.622 0 00-.666.09c-4.566 3.871-10.394 8.833-12.227 10.485-1.03.93-2.458.93-3.489-.001-1.954-1.76-8.499-7.324-12.226-10.484A.625.625 0 00.5 5.032V20.75c0 1.379 1.121 2.5 2.5 2.5h25c1.379 0 2.5-1.121 2.5-2.5V5.032a.625.625 0 00-.363-.567z"/></svg>