<svg xmlns="http://www.w3.org/2000/svg" width="80" height="52"><defs><linearGradient id="a" x1="-413" x2="-413" y1="-1846" y2="-1846" gradientUnits="userSpaceOnUse"><stop offset="0" stop-color="#46dbfb"/><stop offset="1" stop-color="#3295d1"/></linearGradient><linearGradient id="b" x1="-413" x2="-413" y1="-1846" y2="-1846" gradientUnits="userSpaceOnUse"><stop offset="0" stop-color="#46dbfb"/><stop offset="1" stop-color="#3295d1"/></linearGradient><linearGradient id="c" x1="-413" x2="-413" y1="-1846" y2="-1846" gradientUnits="userSpaceOnUse"><stop offset="0" stop-color="#46dbfb"/><stop offset="1" stop-color="#3295d1"/></linearGradient></defs><g clip-path="url(#clip-eec48a76-32b5-47b0-a200-56225a4b3071)"><path fill="url(#a)" d="M40 22.95c-4.188 0-7.596-3.408-7.596-7.597v-.527c.732-.29 1.445-.75 2.129-1.381a1.172 1.172 0 00-1.59-1.722c-.586.54-1.172.89-1.74 1.039a.189.189 0 01-.031.005.238.238 0 01-.02-.106v-2.318c0-4.188 3.407-7.595 7.596-7.595h2.505c4.188 0 7.596 3.407 7.596 7.595v.256c0 .038-.023.07-.053.077-7.018 1.386-10.537-1.226-11.725-2.414a1.172 1.172 0 10-1.657 1.657c3.639 3.64 8.95 3.705 12.182 3.317v2.117c0 4.189-3.407 7.596-7.596 7.596zm0 8.281l-4.356-4.356a3.67 3.67 0 00.518-1.877v-.477a9.885 9.885 0 003.838.772c1.36 0 2.657-.275 3.838-.772v.477c0 .675.187 1.32.519 1.877zm13.784-1.988l-6.81-3.027a1.334 1.334 0 01-.792-1.218v-1.87a9.924 9.924 0 003.758-7.775v-2.632a2.428 2.428 0 001.252-2.122v-.256c0-5.48-4.458-9.94-9.94-9.94h-2.504c-5.48 0-9.94 4.46-9.94 9.94v2.318c0 .792.341 1.51.936 1.97.1.077.206.146.317.205v.517a9.924 9.924 0 003.757 7.775v1.87c0 .526-.31 1.005-.791 1.218l-6.81 3.027a6.187 6.187 0 00-3.671 5.649v15.532a1.172 1.172 0 002.343 0V34.892c0-.136.01-.27.024-.403l3.138 3.138a2.57 2.57 0 01.757 1.828v10.969a1.172 1.172 0 002.344 0V39.455a4.897 4.897 0 00-1.444-3.485l-3.74-3.741c.337-.35.741-.64 1.201-.844l6.695-2.976 4.965 4.965v17.05a1.172 1.172 0 002.343 0v-17.05l4.965-4.965 6.695 2.976c.46.204.864.494 1.201.844l-3.74 3.74a4.897 4.897 0 00-1.444 3.486v10.97a1.172 1.172 0 002.344 0v-10.97c0-.69.269-1.34.757-1.828l3.138-3.138c.014.133.023.267.023.403v15.532a1.172 1.172 0 002.344 0V34.892a6.188 6.188 0 00-3.671-5.649z"/><path fill="url(#b)" d="M12.445 29.212A6.35 6.35 0 016.1 22.869v-.243c.935-.215 2.32-.714 3.766-1.876a10.574 10.574 0 002.173 1.582 9.326 9.326 0 004.479 1.156c.705 0 1.46-.082 2.259-.27a6.351 6.351 0 01-6.333 5.994zm0 7.03l-2.708-2.708a3.71 3.71 0 00.122-.94v-1.431a8.656 8.656 0 002.586.393c.9 0 1.768-.138 2.585-.393v1.43c0 .323.043.639.123.94zm0-22.222a6.35 6.35 0 016.343 6.344v.424c-4.88 1.494-7.787-2.217-7.911-2.38a1.172 1.172 0 00-1.766-.125C7.992 19.4 6.897 19.94 6.105 20.2a6.35 6.35 0 016.34-6.18zm0-5.01a2.589 2.589 0 012.544 3.048 8.658 8.658 0 00-2.544-.382c-.884 0-1.737.134-2.542.38a2.603 2.603 0 01-.044-.46 2.588 2.588 0 012.586-2.586zm8.687 13.859v-2.505a8.685 8.685 0 00-3.983-7.298c.148-.474.225-.97.225-1.47a4.935 4.935 0 00-4.93-4.93 4.935 4.935 0 00-4.704 6.4 8.685 8.685 0 00-3.982 7.298v2.505c0 2.96 1.49 5.578 3.757 7.147v2.577c0 .508-.282.965-.737 1.192l-4.053 2.027A4.903 4.903 0 000 40.222v10.202a1.172 1.172 0 002.344 0v-9.696l1.909 1.91a2.57 2.57 0 01.757 1.828v5.958a1.172 1.172 0 002.344 0v-5.958A4.898 4.898 0 005.91 40.98l-2.657-2.657-.04-.036c.167-.147.354-.275.56-.378l4.053-2.027c.208-.104.401-.227.582-.363l2.865 2.866v12.04a1.172 1.172 0 002.343 0v-12.04l2.866-2.866c.18.136.373.26.58.363l1.119.559a1.172 1.172 0 001.048-2.096l-1.118-.56a1.326 1.326 0 01-.737-1.192v-2.577a8.683 8.683 0 003.758-7.147z"/><path fill="url(#c)" d="M65.05 26.707a5.096 5.096 0 01-5.09-5.09v-1.89a9.917 9.917 0 002.75-1.679c1.23.64 3.805 1.748 7.431 2.113v1.455a5.097 5.097 0 01-5.09 5.09zm0 5.777l-2.707-2.708a3.71 3.71 0 00.122-.94v-.25c.806.3 1.677.465 2.586.465.909 0 1.78-.165 2.585-.465v.25c0 .323.043.638.123.94zm-6.343-15.878a5.097 5.097 0 015.091-5.09h2.505a5.097 5.097 0 015.09 5.09v1.302c-5.093-.275-8.168-2.257-8.197-2.277a1.169 1.169 0 00-1.48.146c-1.12 1.122-2.219 1.661-3.009 1.921zm18.568 16.701l-6.558-3.28a1.326 1.326 0 01-.737-1.191v-1.661a7.417 7.417 0 002.505-5.559v-1.334l.08.001c.648 0 1.173-.525 1.173-1.172v-2.505c0-4.1-3.336-7.434-7.435-7.434h-2.505c-4.1 0-7.434 3.335-7.434 7.434v2.505a1.172 1.172 0 001.252 1.17v1.335c0 2.21.97 4.196 2.505 5.559v1.66c0 .509-.282.966-.737 1.193a1.172 1.172 0 101.048 2.096c.208-.103.401-.226.581-.362l2.866 2.865v15.797a1.172 1.172 0 002.343 0V34.627l2.866-2.866c.18.137.373.26.58.363l6.347 3.173-1.925 1.925a4.898 4.898 0 00-1.444 3.486v9.716a1.172 1.172 0 002.344 0v-9.716c0-.69.269-1.34.757-1.829l1.824-1.823c.055.212.085.433.085.66v12.708a1.172 1.172 0 002.344 0V37.716a4.902 4.902 0 00-2.725-4.409z"/></g></svg>