<svg xmlns="http://www.w3.org/2000/svg" width="30" height="30"><defs><linearGradient id="a" x1="30" x2="0" y1="16.9" y2="16.9" gradientUnits="userSpaceOnUse"><stop offset="0" stop-color="#3295d1"/><stop offset="1" stop-color="#46dbfb"/></linearGradient></defs><g clip-path="url(#clip-3d7b8884-4ab5-4cb8-84e7-ad4469fe89ce)"><path fill="url(#a)" d="M15.412 24.066c-4.394 0-8.071-1.956-8.071-4.354 0-1.072.603-2.05 1.976-2.05 2.09 0 2.284 3.008 5.9 3.008 1.722 0 2.834-.764 2.834-1.762 0-1.252-1.072-1.447-2.813-1.875-4.186-1.032-7.89-1.474-7.89-5.84 0-3.966 3.925-5.433 7.307-5.433 3.69 0 7.421 1.467 7.421 3.71 0 1.133-.763 2.13-2.03 2.13-1.895 0-1.955-2.243-5.023-2.243-1.72 0-2.813.469-2.813 1.507 0 1.326 1.393 1.46 4.629 2.21 2.772.623 6.075 1.795 6.075 5.198 0 3.958-3.825 5.794-7.502 5.794zm13.034-6.129a14.6 14.6 0 00.315-2.934c0-7.602-6.156-13.75-13.751-13.75-.998 0-1.99.113-2.934.314A7.438 7.438 0 007.502 0 7.506 7.506 0 000 7.502a7.44 7.44 0 001.56 4.568 14.577 14.577 0 00-.314 2.933c0 7.602 6.155 13.751 13.75 13.751.999 0 1.99-.114 2.934-.315A7.47 7.47 0 0022.498 30 7.506 7.506 0 0030 22.498a7.389 7.389 0 00-1.554-4.561z"/></g></svg>