<svg xmlns="http://www.w3.org/2000/svg" width="30" height="30"><defs><linearGradient id="a" x1="0" x2="30" y1="15" y2="15" gradientUnits="userSpaceOnUse"><stop offset="0" stop-color="#46dbfb"/><stop offset="1" stop-color="#3295d1"/></linearGradient></defs><g clip-path="url(#clip-feddbb31-b753-455f-840c-38a2803f130e)"><path fill="url(#a)" d="M22.367 10.276l-2.462 11.601c-.181.823-.671 1.022-1.355.635l-3.75-2.764-1.808 1.742c-.2.2-.369.369-.756.369l.266-3.817 6.95-6.278c.302-.266-.067-.417-.466-.151l-8.589 5.407-3.701-1.155c-.805-.254-.823-.805.169-1.192l14.462-5.576c.671-.242 1.258.163 1.04 1.18zM15 0C6.714 0 0 6.714 0 15s6.714 15 15 15 15-6.714 15-15S23.286 0 15 0z"/></g></svg>