<svg xmlns="http://www.w3.org/2000/svg" width="30" height="26"><path fill="#3295d1" d="M28.242 16.216a4.4 4.4 0 01-4.394 4.394h-12.92a.88.88 0 00-.62.258L7.945 23.23 5.43 20.714a.878.878 0 00-.409-.231 4.298 4.298 0 01-3.263-4.18V6.801a4.4 4.4 0 014.394-4.395h17.696a4.4 4.4 0 014.394 4.395zM23.848.648H6.152A6.16 6.16 0 000 6.801v9.502a6.053 6.053 0 004.353 5.82l2.971 2.971a.88.88 0 001.243 0l2.726-2.726h12.555A6.16 6.16 0 0030 16.216V6.8A6.16 6.16 0 0023.848.649z"/><path fill="#3295d1" d="M20.58 9.076H9.42a.879.879 0 000 1.758h11.16a.879.879 0 100-1.758zm0 3.107H9.42a.879.879 0 100 1.758h11.16a.879.879 0 100-1.758z"/></svg>