<svg xmlns="http://www.w3.org/2000/svg" width="26" height="30"><path fill="#3295d1" d="M12.81 14.451c1.986 0 3.705-.712 5.11-2.117 1.404-1.405 2.117-3.123 2.117-5.109 0-1.985-.713-3.703-2.117-5.109C16.515.712 14.796 0 12.81 0c-1.985 0-3.703.712-5.108 2.117C6.297 3.52 5.585 5.24 5.585 7.225c0 1.986.712 3.705 2.117 5.11 1.405 1.404 3.124 2.116 5.109 2.116zm12.644 8.617a17.847 17.847 0 00-.243-1.895 14.934 14.934 0 00-.466-1.906 9.413 9.413 0 00-.784-1.778 6.708 6.708 0 00-1.181-1.54 5.21 5.21 0 00-1.697-1.066 5.865 5.865 0 00-2.167-.392c-.306 0-.602.126-1.174.498-.352.23-.764.495-1.224.79-.393.25-.925.484-1.583.696a6.286 6.286 0 01-1.936.313 6.292 6.292 0 01-1.936-.313c-.657-.212-1.19-.446-1.582-.697-.455-.29-.867-.556-1.224-.789-.572-.372-.868-.498-1.174-.498-.78 0-1.509.132-2.167.393-.66.26-1.23.62-1.697 1.066a6.708 6.708 0 00-1.18 1.54 9.432 9.432 0 00-.784 1.777 14.97 14.97 0 00-.466 1.906c-.121.672-.203 1.31-.243 1.896-.04.574-.06 1.17-.06 1.772 0 1.566.497 2.833 1.48 3.768.968.923 2.25 1.391 3.811 1.391h14.445c1.56 0 2.842-.468 3.812-1.39.982-.935 1.48-2.203 1.48-3.77 0-.604-.021-1.2-.061-1.772z"/></svg>