<svg xmlns="http://www.w3.org/2000/svg" width="80" height="80"><defs><clipPath id="a"><path d="M0 80V0h80v80z"/></clipPath></defs><path fill="#3295d1" d="M0 80V0h80v80z"/><g clip-path="url(#a)"><path fill="#3295d1" d="M14.401 66.218c3.754-1.533 11.237-4.202 16.152-5.654 2.859-.901 2.859-3.308 2.859-5.242 0-1.603-.111-3.967-1.049-5.965-.644-1.369-1.38-3.716-1.543-5.553a1.652 1.652 0 00-.563-1.11c-.472-.414-1.432-1.928-2.044-4.98-.485-2.418-.28-2.947-.081-3.458.084-.218.166-.433.231-.675.4-1.464-.046-6.27-.53-8.936-.212-1.159.055-4.451 2.223-7.225 1.943-2.485 4.885-3.87 8.639-4.11l3.16-.003c3.855.243 6.797 1.628 8.744 4.113 2.168 2.774 2.432 6.066 2.22 7.227-.482 2.664-.931 7.47-.53 8.932.068.244.146.459.23.677.2.51.404 1.04-.078 3.457-.611 3.053-1.575 4.567-2.047 4.98a1.68 1.68 0 00-.563 1.11c-.16 1.838-.895 4.185-1.54 5.554-.739 1.57-1.588 3.662-1.588 5.896 0 1.934 0 4.341 2.887 5.251 4.704 1.39 12.223 3.973 16.194 5.535C59.154 72.604 50.042 76.667 40 76.667c-9.951 0-18.984-3.99-25.599-10.45zm25.6-62.885c20.217 0 36.666 16.449 36.666 36.667 0 8.895-3.187 17.059-8.477 23.414-3.656-1.526-12.285-4.521-17.627-6.098-.456-.143-.527-.166-.527-2.062 0-1.566.644-3.143 1.273-4.478.68-1.45 1.487-3.888 1.777-6.076.81-.94 1.914-2.796 2.624-6.333.621-3.117.332-4.25-.082-5.315-.042-.113-.088-.223-.12-.334-.157-.731.058-4.528.592-7.474.368-2.022-.094-6.32-2.877-9.876-1.758-2.248-5.12-5.007-11.263-5.39l-3.37.002c-6.038.381-9.404 3.14-11.161 5.388-2.784 3.556-3.246 7.855-2.878 9.874.537 2.948.749 6.745.596 7.461a2.813 2.813 0 01-.124.349c-.41 1.064-.703 2.198-.078 5.315.706 3.537 1.81 5.393 2.624 6.333.286 2.188 1.094 4.626 1.777 6.076.498 1.061.732 2.505.732 4.546 0 1.896-.071 1.919-.498 2.054-5.524 1.63-14.316 4.808-17.594 6.243C6.592 57.234 3.334 48.992 3.334 40 3.334 19.782 19.782 3.333 40 3.333zM40 0C17.906 0 0 17.907 0 40s17.906 40 40 40c22.092 0 40-17.908 40-40C80 17.907 62.093 0 40 0z"/></g></svg>