<svg xmlns="http://www.w3.org/2000/svg" width="30" height="18"><defs><linearGradient id="a" x1="0" x2="30" y1="9" y2="9" gradientUnits="userSpaceOnUse"><stop offset="0" stop-color="#46dbfb"/><stop offset="1" stop-color="#3295d1"/></linearGradient></defs><g clip-path="url(#clip-86de05b9-cad4-4435-aa9c-18815798bfa7)"><path fill="url(#a)" d="M29.316 1.298c.206-.696 0-1.209-.991-1.209h-3.28c-.836 0-1.22.44-1.426.93 0 0-1.67 4.072-4.032 6.711-.763.763-1.114 1.008-1.532 1.008-.206 0-.523-.245-.523-.94v-6.5c0-.835-.234-1.209-.925-1.209H11.45c-.523 0-.835.39-.835.752 0 .791 1.18.975 1.303 3.202v4.835c0 1.058-.19 1.253-.607 1.253-1.114 0-3.82-4.088-5.424-8.766C5.564.457 5.247.089 4.405.089h-3.28C.189.09 0 .53 0 1.02c0 .87 1.114 5.185 5.185 10.888 2.712 3.893 6.533 6.004 10.008 6.004 2.088 0 2.344-.468 2.344-1.276 0-3.72-.189-4.07.858-4.07.485 0 1.32.244 3.27 2.121 2.227 2.228 2.594 3.225 3.842 3.225h3.28c.936 0 1.41-.468 1.136-1.392-.623-1.944-4.84-5.943-5.029-6.21-.484-.624-.345-.902 0-1.46.006-.005 4.01-5.64 4.422-7.551z"/></g></svg>